<svg width="40" height="40" viewBox="0 0 40 40" fill="none" xmlns="http://www.w3.org/2000/svg">
<g clip-path="url(#clip0_5356_44582)">
<path d="M3.31664 30.2463H36.6836C38.2475 27.4727 39.1409 24.2706 39.1409 20.8595C39.1409 10.2884 30.5713 1.71875 20.0002 1.71875C9.42899 1.71875 0.859375 10.2884 0.859375 20.8595C0.859297 24.2707 1.75266 27.4727 3.31664 30.2463Z" fill="#FFC839"/>
<path d="M18.3434 26.9384C18.3434 26.9384 19.5035 27.4473 20.0005 28.1773C20.4974 27.4473 21.6575 26.9384 21.6575 26.9384L26.3286 24.5626C25.9368 24.4416 25.5382 24.3335 25.1308 24.2395C24.3377 23.4463 24.1366 21.9427 24.1004 20.8906C23.6865 21.3727 23.2521 21.776 22.837 22.0983C22.0283 22.7263 21.0303 23.0674 20.0025 23.0674C18.9747 23.0674 17.9767 22.7263 17.168 22.0983C16.753 21.7759 16.3186 21.3727 15.9046 20.8906C15.8684 21.9427 15.6673 23.4463 14.8742 24.2395C14.4659 24.3337 14.0665 24.4421 13.6738 24.5634L18.3434 26.9384Z" fill="#FFAA7B"/>
<path d="M19.8084 23.0634C18.8496 23.0233 17.9257 22.6867 17.168 22.0984C16.753 21.776 16.3185 21.3727 15.9046 20.8906C15.8731 21.8057 15.7164 23.062 15.1543 23.8957C15.9537 25.5093 16.9896 26.8594 18.0373 26.1532C19.3292 25.2823 19.7124 23.988 19.8084 23.0634Z" fill="#FC9460"/>
<path d="M18.5072 26.6909L16.4347 25.6367C15.5529 25.9049 14.3486 26.6052 14.3061 28.433C13.7106 28.5361 10.7119 29.1957 10.7119 31.9973V37.5975C13.4625 39.1274 16.6291 39.9996 20 39.9996C20.0668 39.9996 20.1332 39.9977 20.2 39.9971C20.2 35.7317 20.2 29.027 20.2 28.3836C20.2 27.433 18.5072 26.6909 18.5072 26.6909Z" fill="#7E6DD1"/>
<path d="M10.8291 37.6621C10.8291 36.1941 10.8291 33.8866 10.8291 31.9977C10.8291 28.9709 14.4222 28.5337 14.4222 28.5337C14.4222 26.6121 15.7126 25.9441 16.5819 25.7119L14.0841 24.4414C8.73586 26.1854 6.18148 26.8828 4.84961 27.8335C6.23617 28.7798 8.4168 30.7456 8.4168 33.7532V36.0973C9.17805 36.677 9.98453 37.2001 10.8291 37.6621Z" fill="#7255CE"/>
<path d="M25.9158 24.4414L21.4925 26.6912C21.4925 26.6912 19.7998 27.4334 19.7998 28.3839V39.9974C19.8665 39.9981 19.9329 39.9999 19.9998 39.9999C20.8976 39.9999 21.7807 39.9371 22.6457 39.8175L22.6451 39.8171L28.0968 38.2064V38.2066C29.337 37.6266 30.505 36.9181 31.583 36.0973C31.583 35.282 31.583 34.4869 31.583 33.7532C31.583 30.7456 33.7637 28.7799 35.1502 27.8335C33.8184 26.8828 31.2641 26.1854 25.9158 24.4414Z" fill="#9589E8"/>
<path d="M24.5482 22.4331C24.4583 22.3835 24.3465 22.4354 24.326 22.536C24.1923 23.1907 23.6123 25.2531 21.4585 26.4772C21.2464 26.5977 21.1956 26.8807 21.356 27.0645L23.5324 29.5572C23.9843 30.0777 24.8163 29.984 25.1424 29.3769C25.6938 28.3503 26.462 26.7878 27.0306 25.1079C27.1324 24.8072 27.0601 24.4746 26.8455 24.2405C26.1835 23.5184 25.4079 22.9076 24.5482 22.4331Z" fill="#B5B0F7"/>
<path d="M18.5427 26.4746C18.0245 26.1801 17.5981 25.8368 17.2464 25.4766C16.7223 25.521 14.443 25.8573 14.3125 28.3112C14.5066 28.7064 14.6926 29.0651 14.8588 29.3744C15.1849 29.9816 16.0169 30.0752 16.4688 29.5548L18.6451 27.062C18.8055 26.8781 18.7547 26.5951 18.5427 26.4746Z" fill="#9589E8"/>
<path d="M15.6758 22.536C15.6553 22.4354 15.5435 22.3835 15.4536 22.4331C14.594 22.9077 13.8183 23.5184 13.1564 24.2406C12.9419 24.4746 12.8694 24.8072 12.9712 25.108C13.4011 26.3779 13.9448 27.5802 14.4229 28.5352C14.4229 25.6383 17.3568 25.5894 17.3568 25.5894L17.3569 25.5892C16.1601 24.4277 15.7806 23.0493 15.6758 22.536Z" fill="#7E6DD1"/>
<path d="M31.4268 36.2173C33.5686 34.6209 35.3643 32.5866 36.6832 30.2476C36.5359 29.8093 36.3764 29.4071 36.2032 29.0539C35.9536 28.545 35.6073 28.1459 35.0732 27.7812C33.6921 28.7059 31.4268 30.6898 31.4268 33.7548V36.2173Z" fill="#B5B0F7"/>
<path d="M4.92648 27.7812C4.39234 28.146 4.04594 28.545 3.79648 29.0539C3.62336 29.4071 3.46383 29.8093 3.31641 30.2476C4.63531 32.5866 6.43102 34.621 8.57289 36.2173C8.57289 35.3606 8.57289 34.5241 8.57289 33.7548C8.57297 30.6898 6.3075 28.7059 4.92648 27.7812Z" fill="#7E6DD1"/>
<path d="M27.1602 32.8594H23.5273C23.0117 32.8594 22.5898 33.2813 22.5898 33.7969V39.5C22.5898 39.6106 22.6102 39.7165 22.6459 39.8152C24.5693 39.5493 26.4012 38.9978 28.0977 38.2045V33.7969C28.0977 33.2813 27.6758 32.8594 27.1602 32.8594Z" fill="#B5B0F7"/>
<path d="M33.0848 6.89062C31.2676 8.23391 29.0066 10.4984 29.9651 13.3357C31.4495 17.7298 24.7308 20.5008 32.2308 23.6855C35.2295 24.959 36.9719 26.2876 37.9843 27.4239C38.7321 25.3762 39.1408 23.1653 39.1408 20.8587C39.1407 15.3485 36.8114 10.383 33.0848 6.89062Z" fill="#FFDD40"/>
<path d="M6.91531 6.89062C8.7325 8.23391 10.9935 10.4984 10.035 13.3357C8.55063 17.7298 15.2694 20.5008 7.76937 23.6855C4.77062 24.959 3.02812 26.2876 2.01586 27.4239C1.26805 25.3762 0.859375 23.1653 0.859375 20.8587C0.859453 15.3485 3.18875 10.383 6.91531 6.89062Z" fill="#FFDD40"/>
<path d="M12.8812 12.3028H27.1992C27.2246 11.2712 27.3967 8.54054 28.4749 6.59538C28.6248 6.32483 28.6516 6.00343 28.5472 5.71226C28.156 4.62147 26.9874 2.07147 24.4388 1.39132C24.303 1.35507 24.2671 1.17944 24.3776 1.09265L24.7595 0.792569C24.9327 0.656475 24.8662 0.380069 24.6499 0.338428C22.7695 -0.0242282 16.5246 -0.892041 14.5848 3.09679C14.469 3.33483 14.2508 3.50624 13.9945 3.57257C13.4301 3.71866 12.4149 4.15897 11.7531 5.47843C11.6237 5.73647 11.6017 6.03577 11.6944 6.30913C12.016 7.25687 12.7995 9.80171 12.8812 12.3028Z" fill="#56415E"/>
<path d="M19.2878 5.99641C17.001 2.51133 21.0011 0 21.0011 0C18.5752 0.0314062 15.7727 0.652656 14.5848 3.09539C14.469 3.33344 14.2508 3.50484 13.9945 3.57117C13.4301 3.71727 12.4149 4.15758 11.7531 5.47703C11.6237 5.73508 11.6017 6.03437 11.6944 6.30773C12.016 7.25547 12.7995 9.80031 12.8812 12.3014H16.214C18.3234 10.5927 20.6467 8.06734 19.2878 5.99641Z" fill="#45304C"/>
<path d="M27.7549 11.8852C27.4343 11.5915 26.7177 11.7404 26.4416 11.9202C26.5021 12.2968 26.5055 12.6822 26.4532 13.0626L26.1275 15.4354C26.1275 15.6267 26.1214 15.8143 26.1104 15.9987C26.9048 16.2383 27.3775 15.5251 27.444 15.0357C27.4726 14.825 27.5194 14.6173 27.5843 14.4147C27.7957 13.7548 28.558 12.6212 27.7549 11.8852Z" fill="#FFAA7B"/>
<path d="M12.2455 11.8852C12.566 11.5915 13.2826 11.7404 13.5587 11.9202C13.4983 12.2968 13.4948 12.6822 13.5471 13.0626L13.8729 15.4354C13.8729 15.6267 13.8789 15.8143 13.89 15.9987C13.0955 16.2383 12.6228 15.5251 12.5563 15.0357C12.5277 14.825 12.4809 14.6173 12.416 14.4147C12.2047 13.7548 11.4423 12.6212 12.2455 11.8852Z" fill="#FC9460"/>
<path d="M26.3236 11.1883C26.2502 10.997 26.1578 10.8033 26.0413 10.6205C25.844 10.311 25.7572 9.94491 25.7837 9.57991C25.8597 8.53007 25.819 6.47671 24.4407 5.85655C23.2699 5.32968 21.8336 5.63475 20.9176 5.93928C20.3447 6.12983 19.7258 6.13632 19.1495 5.95983C18.1059 6.76077 18.0814 8.56413 18.1519 9.52436C18.1789 9.89139 18.0886 10.2585 17.8902 10.5698C17.7759 10.7491 17.6844 10.939 17.6113 11.1269C17.374 11.7364 17.3048 12.3975 17.3937 13.0448L17.7239 15.4496C17.7239 18.9068 19.5693 21.2566 21.1391 22.4757C21.3708 22.6556 21.6187 22.8104 21.8775 22.9425C22.2168 22.7921 22.5386 22.601 22.8348 22.3709C24.3841 21.1679 26.2054 18.8487 26.2054 15.4366L26.5312 13.0638C26.6182 12.4312 26.5523 11.7852 26.3236 11.1883Z" fill="#FFC7AB"/>
<path d="M21.1503 22.371C19.601 21.168 17.7796 18.8487 17.7796 15.4367L17.4538 13.0633C17.366 12.4245 17.4343 11.772 17.6685 11.1705C17.7407 10.985 17.8309 10.7976 17.9438 10.6206C18.1396 10.3134 18.2287 9.95116 18.2021 9.58889C18.1303 8.61108 18.1582 6.74757 19.2876 5.99866C19.2189 5.98132 19.1507 5.96178 19.0832 5.93928C18.1671 5.63475 16.7309 5.32968 15.56 5.85655C14.1778 6.47843 14.1408 8.54178 14.2178 9.58889C14.2444 9.95116 14.1552 10.3134 13.9594 10.6206C13.8466 10.7976 13.7563 10.985 13.6841 11.1705C13.4499 11.772 13.3817 12.4245 13.4694 13.0633L13.7953 15.4367C13.7953 18.8487 15.6167 21.1679 17.1659 22.371C17.9746 22.999 18.9725 23.3401 20.0003 23.3401C20.6945 23.3401 21.3747 23.1839 21.9925 22.8895C21.6956 22.748 21.4128 22.5749 21.1503 22.371Z" fill="#FFAA7B"/>
</g>
<defs>
<clipPath id="clip0_5356_44582">
<rect width="40" height="40" fill="white"/>
</clipPath>
</defs>
</svg>
